<?xml version="1.0" encoding="utf-8"?>
<!-- Generator: Adobe Illustrator 24.0.1, SVG Export Plug-In . SVG Version: 6.00 Build 0)  -->
<svg version="1.1" id="Layer_1" xmlns="http://www.w3.org/2000/svg" xmlns:xlink="http://www.w3.org/1999/xlink" x="0px" y="0px"
	 viewBox="0 0 1920 1280" style="enable-background:new 0 0 1920 1280;" xml:space="preserve">
<style type="text/css">
	.st0{fill:#F0E1DE;}
	.st1{fill:#A0E0E4;}
	.st2{fill:#555555;}
	.st3{fill:#6E6C6A;}
	.st4{fill:#939393;}
	.st5{fill:#AEAEAE;}
	.st6{fill:#402A06;}
	.st7{fill:#B5EECB;}
	.st8{fill:#E5A000;}
	.st9{fill:#F8C72F;}
	.st10{fill:#A36D00;}
	.st11{fill:#11412B;}
	.st12{fill:#1B3317;}
	.st13{fill:#A66552;}
	.st14{fill:#006D3C;}
	.st15{fill:#6D9E3B;}
	.st16{fill:#254720;}
	.st17{fill:#5F8A34;}
	.st18{fill:#B0CC4D;}
	.st19{fill:#35652D;}
	.st20{fill:#C6E657;}
	.st21{fill:#5B4C34;}
	.st22{fill:#284D22;}
	.st23{fill:#438039;}
	.st24{fill:#AD7154;}
	.st25{fill:#CA8865;}
	.st26{fill:#FDBFAF;}
	.st27{fill:#1D7256;}
	.st28{fill:#55A261;}
	.st29{fill:#C8D4ED;}
	.st30{fill:#B2BDD3;}
	.st31{fill:#8E97A8;}
	.st32{fill:#FFE876;}
	.st33{fill:#17593A;}
	.st34{fill:#B9DBA5;}
	.st35{fill:#DFDACD;}
	.st36{fill:#6E6D6E;}
	.st37{fill:#475250;}
	.st38{fill:#DAE3E6;}
	.st39{fill:#274A21;}
	.st40{fill:#12210F;}
	.st41{fill:#305C29;}
	.st42{fill:#23421E;}
	.st43{fill:#3C7333;}
	.st44{fill:#00B7AF;}
	.st45{fill:#FCEE96;}
	.st46{fill:#877C1C;}
	.st47{fill:#B0A124;}
	.st48{fill:#DBC82D;}
	.st49{fill:#FEE835;}
	.st50{fill:#E88264;}
	.st51{fill:#FDD5C9;}
	.st52{fill:#F582A8;}
	.st53{fill:#3C8A59;}
	.st54{fill:#7EB6D7;}
	.st55{clip-path:url(#SVGID_2_);fill:#FFFFFF;}
	.st56{opacity:0.1;fill:#4F2882;}
	.st57{fill:#4D5264;}
	.st58{fill:#B16357;}
	.st59{fill:#DC8C7D;}
	.st60{opacity:0.3;fill:#683B27;}
	.st61{fill:#8E473E;}
	.st62{opacity:0.16;fill:#FFC6BD;}
	.st63{fill:#55AE71;}
	.st64{fill:#62BD71;}
	.st65{fill:#3F5E1E;}
	.st66{fill:#98B042;}
	.st67{fill:#B09D57;}
	.st68{fill:#BDDB53;}
	.st69{clip-path:url(#SVGID_4_);}
	.st70{fill:#FFFFFF;}
	.st71{opacity:0.5;fill:#005337;}
	.st72{opacity:0.2;fill:#005337;}
	.st73{fill:#FDA0A3;}
	.st74{fill:#0F7F3E;}
	.st75{fill:#9FD8AF;}
	.st76{fill:#F7C9B6;}
	.st77{clip-path:url(#SVGID_6_);}
	.st78{fill:#7B3C14;}
	.st79{fill:#6AC279;}
	.st80{fill:#9589A9;}
	.st81{fill:#FFD8C0;}
	.st82{opacity:0.12;fill:#00D865;}
	.st83{opacity:0.5;}
	.st84{fill:#2EA068;}
	.st85{opacity:0.15;fill:#00D865;}
	.st86{opacity:0.69;}
	.st87{opacity:0.09;fill:#00D865;}
	.st88{opacity:0.31;}
	.st89{opacity:0.14;fill:#00D865;}
	.st90{opacity:0.63;}
	.st91{opacity:0.39;fill:#FFCB95;}
	.st92{fill:#EAAF7B;}
	.st93{fill:#955B42;}
	.st94{fill:#FA8E67;}
	.st95{fill:#FFAB90;}
	.st96{opacity:0.19;fill:#592012;}
	.st97{fill:#98AA3C;}
	.st98{opacity:0.3;}
	.st99{fill:#F7FFAF;}
	.st100{fill:#C4D958;}
	.st101{opacity:0.53;}
	.st102{opacity:0.56;}
	.st103{opacity:0.33;}
	.st104{fill:#206148;}
	.st105{fill:#29693F;}
	.st106{fill:#2B6A40;}
	.st107{opacity:0.27;fill:#083726;}
	.st108{fill:#0E825C;}
	.st109{fill:#7EB370;}
	.st110{fill:#7AAF71;}
	.st111{fill:#549BAD;}
	.st112{fill:#2D931F;}
	.st113{fill:#78C150;}
	.st114{opacity:0.72;}
	.st115{opacity:0.18;fill:#023B05;}
	.st116{fill:#2F5928;}
	.st117{fill:#4D9442;}
	.st118{fill:#C64F1D;}
	.st119{fill:#DE3D33;}
	.st120{fill:#AF1E1B;}
	.st121{fill:#F7837C;}
	.st122{fill:#FF7169;}
	.st123{fill:#9CC164;}
	.st124{clip-path:url(#SVGID_8_);}
	.st125{clip-path:url(#SVGID_10_);}
	.st126{fill:#004B32;}
	.st127{clip-path:url(#SVGID_12_);}
	.st128{clip-path:url(#SVGID_14_);}
	.st129{clip-path:url(#SVGID_16_);}
	.st130{fill:#137A3C;}
	.st131{clip-path:url(#SVGID_18_);}
	.st132{clip-path:url(#SVGID_20_);}
	.st133{clip-path:url(#SVGID_22_);}
	.st134{fill:#DB5720;}
	.st135{fill:#EBFBFF;}
	.st136{clip-path:url(#SVGID_24_);fill:none;stroke:#DB5720;stroke-width:8;stroke-miterlimit:10;}
	.st137{fill:#FEA959;}
	.st138{fill:#427D38;}
	.st139{fill:#0C4E31;}
	.st140{fill:#E5C661;}
	.st141{opacity:0.6;}
	.st142{fill:#6BA488;}
	.st143{fill:#0E5F3E;}
	.st144{opacity:0.4;fill:#00321A;}
	.st145{fill:#FBE27E;}
	.st146{fill:#37785C;}
	.st147{fill:#A3D9D3;}
	.st148{fill:#FCC0C5;}
	.st149{clip-path:url(#SVGID_26_);}
</style>
<g>
	<g>
		<path class="st7" d="M1254.59,152.66c-22.6-39.64-56.16-85.08-101.38-78.98c-18.78,2.54-34.97,14-50.31,25.12
			c-91.37,66.21-182.75,132.43-274.12,198.64c-29.31,21.24-59.63,43.62-76.46,75.66c-16.75,31.89-18.03,69.33-19.66,105.32
			c-4.71,103.63-24.11,221.95-112.24,276.68c-29.81,18.51-67.19,29.57-84.88,59.87c-9.63,16.5-11.65,36.2-13.47,55.22
			c-8.95,93.88-10.95,204.98,63.51,262.84c31.54,24.51,71.76,34.43,110.93,42.28c97.03,19.45,195.84,30,294.79,31.47
			c29.37,0.44,60.35-0.35,85.57-15.41c45.18-26.97,54.75-87.97,52.97-140.55c-1.78-52.59-9.22-109.17,17.59-154.44
			c33.16-55.99,106.1-73.61,152.27-119.47c44.69-44.4,59.5-109.97,70.51-172c11.36-64.04,20.81-128.41,28.33-193.01
			c3.94-33.89,7.23-69.1-3.73-101.4c-10.75-31.67-34.15-57.41-48.35-87.69c-13.11-27.95-18.3-59.58-35.06-85.5
			s-52.18-44.52-78.59-28.54"/>
	</g>
	<g>
		<g>
			<path class="st8" d="M1173.23,809.86c-30.29,133.74-76.85,238.13-91.13,266.69c-2.84,5.7-7.32,10.51-12.91,13.65
				c-27.02,15.43-55.2,17.94-81.8,22.54c-5.28,0.91-9.53,1.73-12.43,2.14c-2.69,0.42-4.21,0.63-4.21,0.63s0.05-0.21,0.21-0.58
				c0.37-0.84,1.05-2.56,2.05-5.07c13.96-34.62,87.7-217.47,98.34-243.57c0.74-1.83,1.21-2.93,1.26-3.09
				C1073.99,860.28,1173.23,809.86,1173.23,809.86z"/>
			<path class="st8" d="M974.96,1114.89c0,0-1.42,0.05-4,0.05c-2.11,0-5-0.05-8.48-0.16c-21.39-0.68-65.63-4.29-95.5-21.18
				c-5.58-3.19-10.01-7.95-12.91-13.6c-14.22-28.35-60.84-126.78-91.13-259.57c0,0,114.15,43.36,115.52,46.29
				c1.21,2.62,81.01,208.32,94.55,243.15C974.27,1113.11,974.96,1114.89,974.96,1114.89z"/>
			<path class="st9" d="M1080.1,866.3l-92.71,246.45c-5.27,0.99-9.53,1.73-12.43,2.14c-2.69,0.42-4.21,0.63-4.21,0.63
				s0.05-0.21,0.21-0.58c-2.11,0-5-0.05-8.48-0.16l-92.66-248.07h8.64l192.9-0.42H1080.1z"/>
		</g>
		<path class="st8" d="M877.63,866.69c-13.87,0-48.84-10.42-55.71-12.5c-38.77-11.78-58.96-18.68-58.96-33.79
			c0-9.67,9.68-17.27,54.79-41.72c43.62-23.65,55.86-23.65,59.88-23.65c1.97,0,8.65-0.15,18.4-0.36
			c26.97-0.59,77.19-1.68,117.19-1.68c43.73,0,55.47,1.28,61.18,2.52c13.85,3.03,35.68,11.67,50.18,18.14
			c31.82,14.23,48.65,23.79,48.65,36.19c0,8.5-10.17,15.79-47.55,36.69c-23.95,13.38-41.78,20.17-52.98,20.17H877.63z"/>
		<path class="st10" d="M1146.53,804.44c0,1.27-2.01,3.57-5.43,6.46c-14.78,12.57-55.34,36.21-68.4,36.21H877.62
			c-11.45,0-62.24-15.07-81.37-24.37c-4.55-2.25-7.29-4.16-7.29-5.43c0-6.7,73.34-50.3,88.66-50.3c11.2,0,171.25-4.89,192.34,0
			C1091.05,771.95,1146.53,797.59,1146.53,804.44z"/>
		<path class="st6" d="M1141.1,810.89c-14.78,12.57-55.34,36.21-68.4,36.21H877.62c-11.45,0-62.24-15.07-81.37-24.37
			c18.59-14.39,69.43-43.2,81.86-43.2c11.2,0,171.25-4.89,192.34,0C1087.33,783.49,1126.23,800.67,1141.1,810.89z"/>
	</g>
	<g id="ficus_lirata_1_">
		<path class="st11" d="M1153.16,483.25c0.49-14.64-6.16-30.93-21.76-34.44c-7.68-1.73-17.71,0.58-25.53,1.42
			c-9.92,1.08-19.62,3.43-29.04,6.7c-15.5,5.38-30.65,11.71-45.57,18.53c-13.62,6.22-27.76,11.58-41.2,18.17
			c-7.29,3.58-10.76,6.29-12.65,14.48c-2.34,10.17-1.1,22.1-1.84,32.5c-1.15,16.21-1.98,32.43-2.8,48.66
			c-1.66,32.85-1.44,65.86-4.66,98.6c-0.83,8.43,11.25,10.51,15.16,4.11c10.79-17.68,25.8-27.64,42.38-39.43
			c14.66-10.42,28.81-21.37,43.92-31.17c14.35-9.31,29.42-17,44-25.85c10.5-6.38,20.1-14.64,24.6-26.39
			c5.22-13.61,0.65-25.54,0.6-39.32C1138.72,513.01,1152.59,500.33,1153.16,483.25z"/>
		<path class="st12" d="M1022.33,562.7c1.68,4.26,2.45,7.03,2.32,11.22l5.09,0.16l-2.23-2.4c1.15-1.07,2.27-1.93,3.39-2.71
			c-0.41-2.88-1.22-5.53-2.46-8.68c-7.19-18.32-14.24-32.5-22.18-44.65c-5.17-7.91-10.5-15.23-16.02-22.1
			c-0.06,0.03-0.11,0.05-0.17,0.08c-2.21,1.09-4.04,2.11-5.61,3.21c5.63,6.93,11.06,14.35,16.31,22.4
			C1008.46,531,1015.31,544.81,1022.33,562.7z"/>
		<path class="st12" d="M1087.98,552.08c-14.37,1.99-29.69,6-48.23,12.61c-3.48,1.24-6.2,2.45-8.86,4.29
			c-1.12,0.78-2.24,1.64-3.39,2.71l2.23,2.4l2.23,2.4c3.08-2.86,5.67-4.09,9.98-5.63c18.11-6.45,33.02-10.36,46.93-12.29
			c18.31-2.54,35.33-3.17,51.76-1.98c0.08-2.21,0-4.4-0.16-6.59C1123.8,548.84,1106.52,549.51,1087.98,552.08z"/>
		<path class="st12" d="M1078.28,502.71c-4.95,1.76-8.37,3.4-12.24,7l4.46,4.81c3.08-2.86,5.67-4.09,9.99-5.63
			c18.11-6.45,33.02-10.36,46.93-12.28c8.09-1.12,15.93-1.87,23.58-2.26c0.73-2.16,1.3-4.36,1.68-6.64
			c-8.48,0.37-17.17,1.15-26.17,2.4C1112.15,492.09,1096.82,496.1,1078.28,502.71z"/>
		<path class="st12" d="M1041.4,564.36c11.49-20.14,24.76-37.39,38.6-55.18c13.58-17.47,29.78-33.44,41.43-52.85
			c1.87-3.11,0.91-6.36-0.98-7.92c-1.84,0.15-3.69,0.36-5.52,0.61c-0.17,0.19-0.35,0.38-0.51,0.61
			c-7.54,10.81-18.38,18.64-27.26,27.87c-7.59,7.89-14.45,16.54-21.48,25.14c-15.62,19.13-29.21,38.79-41.46,61.23
			c-12.07,22.11-23.35,45.19-32.64,69.08c-7.47,19.22-16.76,41.47-17.39,62.6c3.34,0.66,7.18-0.43,9.08-3.55
			c0.77-1.26,1.61-2.41,2.42-3.6c6.17-18.12,14.2-35.87,21.4-53.33C1017.16,610.65,1028.54,586.91,1041.4,564.36z"/>
		<path class="st13" d="M983.54,736.71c-0.58-25.94-0.6-51.89-0.4-77.83c0.4-51.82,2.84-103.88,0.19-155.65
			c-0.17-3.4-2.57-5.2-5.12-5.43c-0.11-5.34-0.22-10.68-0.41-16.03c-0.29-8.54-11.51-11.73-16.06-4.35
			c-4.45,7.23-3.99,14.53-4.62,22.73c-1.11,14.39-3.22,28.58-3.78,43.05c-1.18,30.74-0.47,61.66-0.66,92.43
			c-0.18,28.98,0.1,51.1,0.85,80.08c0.37,14.38,0.3,35.57,0.06,49.96c-0.24,14.52,1.09,30.56-1.95,44.8
			c-1.16,5.44,2.42,10.44,8.1,10.64c7.74,0.26,14.45-1.17,21.84-3.32c3.46-1.01,6.11-4.31,6.07-7.97
			C987.38,785.54,984.08,761.09,983.54,736.71z"/>
		<path class="st11" d="M1136.46,191.66c-2.42-16.59-9.75-33.12-26.13-39.97c-6.87-2.87-14.08-3.5-21.43-2.79
			c-5.39,0.52-11.03,2.46-16.43,2.03c-6.4-0.51-11.87-4.7-17.96-6.23c-19.76-4.97-44.49,7.77-59.29,19.72
			c-16.08,13-26.38,31.19-31.85,50.85c-3.52,12.65-7.74,29.51-4.55,42.5c3.53,14.36,4.65,29.09,6.68,43.79
			c1.94,14.09,1.94,28.3,4.13,42.38c1.38,8.84,1.74,22.74,7.69,30.09c10.89,13.44,30.86-5.89,39.7-12.55
			c19.8-14.9,38.99-31.15,57.58-47.52C1111.56,281.43,1144.12,244.19,1136.46,191.66z"/>
		<path class="st12" d="M1014.49,279.75l1.77,4.86l3.64-3.67c14.34-14.45,50.63-5.63,82,6.5c1.57-1.74,3.12-3.5,4.63-5.28
			c-29.9-11.88-68.12-22.42-87.56-8.96c-5.36-13.16-23.12-52.29-51.08-71.04c-0.86,2.1-1.68,4.22-2.42,6.37
			C996.05,230.12,1014.26,279.13,1014.49,279.75z"/>
		<path class="st12" d="M1044.39,224.28l-0.69,5.77l5.3-2.39c0.62-0.28,58.58-26.19,88.52-17.24c0.08-2.22,0.06-4.48-0.01-6.76
			c-27.83-6.84-72.21,10.05-86.62,16.05c-1.9-18.63-20.95-49.54-34-68.84c-2,0.95-3.97,1.94-5.89,3
			C1026.24,176.39,1046.13,209.65,1044.39,224.28z"/>
		<path class="st12" d="M1040.67,249.08c9.18-17.87,17.62-36.36,25.1-54.94l2.44-6.02c5.01-12.29,10.12-24.9,13.24-38
			c-3.01,0.56-6.03,1.04-8.98,0.8c-0.45-0.04-0.89-0.13-1.33-0.2c-3.01,11.43-7.55,22.69-12.03,33.68l-2.46,6.06
			c-7.37,18.3-15.69,36.51-24.73,54.12c-17.77,34.61-38.76,67.75-62.38,98.57c0.04,0.26,0.07,0.52,0.11,0.78
			c0.58,3.71,1,8.32,1.71,12.95c1.54-1.98,3.1-3.94,4.63-5.93C1000.52,319.16,1022.28,284.89,1040.67,249.08z"/>
		<path class="st14" d="M974.22,226.28c-4.31-9.61-9.95-18.86-17.42-26.38c-9.04-9.1-21.3-13.05-30.72-21.39
			c-10.17-9-13.27-23.68-22.55-33.71c-7.11-7.69-16.48-13.2-26.98-14.45c-21.6-2.57-39.98,13.1-48.03,32.04
			c-6.19,14.55-4.3,27.24-4.13,42.5c0.18,16.24-11.11,28.75-11.03,44.86c0.07,14.3,6.31,27.52,13.63,39.43
			c4,6.51,8.1,11.43,12.56,15.97c7.34,10.79,12.86,22.56,20.88,32.91c8.46,10.92,17.92,21.62,27.53,31.54
			c8.54,8.81,18.38,15.39,29.12,21.27c9.36,5.13,21.2,12.62,32.32,12.52c16.74-0.14,23.31-16.19,26.62-30.17
			c5.59-23.6,12.03-47.48,12.93-71.83C989.88,276.09,984.58,249.39,974.22,226.28z"/>
		<path class="st11" d="M887.49,217.44c14.45-14.21,22.47-35.64,26.92-55.53c-1.61-3.04-3.2-6.11-4.97-9.05
			c-3.85,20.98-11.46,45.06-26.54,59.9L887.49,217.44z"/>
		<path class="st11" d="M908.74,271.39l3.61,5.47c25.08-16.56,39.33-51.38,46.42-74.74c-0.67-0.73-1.27-1.52-1.97-2.23
			c-1.08-1.09-2.22-2.1-3.38-3.06C946.92,219.21,933.13,255.29,908.74,271.39z"/>
		<path class="st11" d="M929.06,326.83l2.71,5.97c25.56-11.6,44.29-40.44,55.34-62.09c-0.55-3.68-1.24-7.33-2.03-10.97
			C975.21,280.79,955.84,314.68,929.06,326.83z"/>
		<path class="st11" d="M883.73,218.89l-2.19-6.19c-17.54,6.2-38.97,4.07-57.86-0.43c-0.41,2.2-0.97,4.35-1.65,6.46
			c10.89,2.59,22.66,4.43,34.23,4.43C865.77,223.17,875.12,221.94,883.73,218.89z"/>
		<path class="st11" d="M909.38,284.48l-2.95-5.85c-25.03,12.62-61.21,7.63-84.11,2.38c1.4,2.65,2.88,5.24,4.43,7.77
			c11.57,2.39,25.52,4.42,39.69,4.42C881.4,293.19,896.58,290.94,909.38,284.48z"/>
		<path class="st11" d="M916.9,277.35c-9.8-25.83-20.15-51.86-31.06-77.22c-9.99-23.22-20.4-44.05-34.04-64.56
			c-2.9,1.64-5.63,3.6-8.17,5.82c4.27,7.77,8.77,15.45,12.48,23.52c5.58,12.11,10.57,24.48,16,36.66
			c11.5,25.81,20.6,53.21,29.99,79.87c9.45,26.83,19.8,53.33,28.17,80.53c4.01,13.03,8.17,26.67,11.62,40.45
			c2.52,0.62,5.03,1.02,7.51,1c3.05-0.03,5.75-0.59,8.17-1.56c-3.11-13.14-6.99-26.11-10.62-38.33
			C938.29,334.34,927.69,305.79,916.9,277.35z"/>
		<path class="st15" d="M937.63,620.74c-1.03-1.79-2.16-3.54-3.37-5.23c-6.87-9.58-17.36-18.13-29.09-20.48
			c-6.88-1.38-15.17-1.56-20.8-6.3c-6.22-5.25-11.96-12.02-15.82-19.22c-3.5-6.51-6.29-13.44-10.54-19.49
			c-7.55-10.76-19.52-18.16-32.41-20.77c-32.54-6.6-54.17,17.21-80.37,31.19c-24.45,13.05-44.5,29.17-45.23,59.17
			c-0.63,25.73,13.31,47.87,36.1,59.62c13.87,7.15,28.74,7.38,43.93,8.14c6.95,0.35,13.85-0.66,20.89,0.37
			c8.17,1.2,16.08,3.84,23.75,6.85c21.59,8.46,42.61,17.19,66.31,15.22c24.55-2.04,52.35-23.3,55.23-48.98
			C947.76,647.01,944.58,632.76,937.63,620.74z"/>
		<path class="st14" d="M1208.35,542.89c-46.67-13.42-94.77,12.88-126.64,44.5c-7.64,7.58-15.67,14.27-26.61,16.39
			c-5.85,1.13-11.68,0.67-17.41,2.72c-10.11,3.62-18.55,11.93-25.42,19.85c-17.15,19.76-23.49,43.75-32.7,67.29
			c-3.22,8.24-4.75,26.73,3.08,20.99c21.49-15.73,62.81,13.35,85.78,16.89c22.37,3.45,46.25,0.21,66.24-10.73
			c21.33-11.67,27.1-33.73,39.36-53.11c14.1-22.3,41.47-25.05,58.2-43.82C1256.66,596.43,1243.12,552.89,1208.35,542.89z"/>
		<path class="st11" d="M1031.99,653.25c-1.3,0.39-2.04,1.76-1.65,3.06c0.39,1.3,1.77,2.05,3.06,1.65
			c17.06-5.1,37.2-2.31,50.85,0.22c30.03,5.58,56.15,17.05,76.69,33.31c0.79-1.45,1.58-2.91,2.35-4.38
			c-21.06-16.47-47.65-28.1-78.14-33.77C1070.99,650.71,1050.06,647.84,1031.99,653.25z"/>
		<path class="st11" d="M1018.46,667.52c0.36,0.19,0.74,0.27,1.12,0.27c0.89,0,1.76-0.49,2.19-1.34
			c9.28-18.05,14.18-38.21,14.8-59.5c-1.72,0.68-3.39,1.49-5.02,2.42c-0.91,19.61-5.6,38.17-14.16,54.83
			C1016.77,665.42,1017.25,666.9,1018.46,667.52z"/>
		<path class="st11" d="M1098.22,626.41c-0.64,1.2-0.19,2.69,1.01,3.33c0.37,0.2,0.77,0.29,1.16,0.29c0.88,0,1.73-0.47,2.17-1.3
			c12.18-22.74,8.43-41.24-0.65-58.86c-1.34,1.01-2.66,2.03-3.97,3.07C1106.21,589.31,1109.21,605.91,1098.22,626.41z"/>
		<path class="st11" d="M1161.61,588.45c-0.64,1.2-0.19,2.69,1.01,3.33c0.37,0.2,0.77,0.29,1.16,0.29c0.88,0,1.73-0.47,2.17-1.3
			c10.29-19.2,9.2-35.38,3.15-50.56c-1.67,0.22-3.34,0.5-5,0.8C1170.11,555.47,1171.25,570.46,1161.61,588.45z"/>
		<path class="st11" d="M1108.65,618.38c-1.3,0.39-2.04,1.76-1.65,3.06c0.39,1.3,1.75,2.04,3.06,1.65
			c17.06-5.1,37.19-2.32,50.85,0.22c18.2,3.38,34.96,8.93,49.92,16.39c1.69-0.94,3.37-1.91,5.03-2.91
			c-16.08-8.41-34.23-14.64-54.05-18.32C1147.66,615.85,1126.74,612.98,1108.65,618.38z"/>
		<path class="st16" d="M1179.98,575.8c-1.35,0.18-2.29,1.42-2.11,2.77c0.18,1.35,1.43,2.31,2.77,2.11
			c17.65-2.39,37.1,3.49,50.2,8.12c4.71,1.66,9.26,3.5,13.7,5.44c0.1-1.78,0.12-3.56,0.03-5.34c-3.95-1.67-7.96-3.28-12.1-4.74
			C1218.9,579.36,1198.68,573.27,1179.98,575.8z"/>
		<path class="st17" d="M1193.27,318.15c-6.89-3.62-13.73-6.05-21.23-7.96c-5.7-1.45-7.99,0.28-10.53-5.66
			c-4.64-10.86-2.5-21.82-11.01-31.72c-17.3-20.11-46.28-17.02-66.29-3.34c-11.92,8.15-22.27,18.92-31.15,30.25
			c-4.97,6.34-9.05,13.77-15.26,19c-8.54,7.2-20.11,10.24-30.13,14.76c-15.08,6.79-27.33,16.1-36.95,29.65
			c-9.99,14.09-11.84,28.62-14.58,44.7c-9.12,26.24-23.84,61.62-11.7,88.48c3.89,8.6,10.8,12.83,19.75,14.83
			c13.81,3.08,28.71,4.93,42.81,5.93c34.65,2.45,62.85-3.21,90.8-24.66c11.88-9.12,19.2-21.17,29.11-32.09
			c13.9-15.32,33.02-18.51,51.25-26.24c23.71-10.06,46.35-31.41,49.46-58.09C1230.52,350.95,1214.62,329.39,1193.27,318.15z"/>
		<path class="st15" d="M1026.1,445.56c0.6,1.09,1.72,1.7,2.88,1.7c0.54,0,1.08-0.13,1.58-0.41c1.59-0.87,2.17-2.87,1.29-4.45
			c-17.66-32.09-15.45-83.73-12.18-113.81c-2.34,0.94-4.67,1.84-6.98,2.77C1009.49,362.53,1008.07,412.81,1026.1,445.56z"/>
		<path class="st15" d="M1080.54,405.31c1.72,1.72,3.54,3.34,5.43,4.91c0.6-0.05,1.19-0.23,1.7-0.61c1.45-1.09,1.75-3.14,0.66-4.59
			c-25.62-34.2-23.59-94.01-21.03-121.42c-2.52,2.5-4.96,5.1-7.31,7.76C1057.89,320.94,1058.26,371.98,1080.54,405.31z"/>
		<path class="st15" d="M1135.03,352.13c0.65,0.81,1.6,1.23,2.57,1.23c0.72,0,1.44-0.24,2.05-0.72c1.41-1.13,1.64-3.2,0.51-4.61
			c-14.25-17.82-15.38-54.98-12.74-88.67c-2.17-0.43-4.39-0.66-6.61-0.78C1118.08,293.55,1119.43,332.64,1135.03,352.13z"/>
		<path class="st15" d="M1014.53,451.16c-1.11,1.43-0.85,3.49,0.59,4.6c23.88,18.45,60.99,26.13,90.87,29.28
			c1.93-1.99,3.75-4.06,5.52-6.16c-29.86-2.77-68.64-9.96-92.38-28.31C1017.69,449.45,1015.63,449.73,1014.53,451.16z"/>
		<path class="st15" d="M1080.54,405.31c-0.21-0.21-0.44-0.4-0.65-0.62c-1.27-1.3-3.34-1.32-4.64-0.05
			c-1.3,1.27-1.32,3.34-0.06,4.64c18.94,19.4,48.25,29.84,74.83,35.45c3.88-1.66,7.87-3.13,11.9-4.57
			c-25.54-4.37-55.53-12.99-75.96-29.94C1084.08,408.65,1082.26,407.02,1080.54,405.31z"/>
		<path class="st15" d="M1129.9,358.91c-1.1,1.94-2.27,3.84-3.52,5.71c19.39,18.37,61.24,24.93,97,26.97
			c0.91-2.13,1.7-4.31,2.35-6.54C1189.9,383.18,1147.53,376.94,1129.9,358.91z"/>
		<path class="st18" d="M994.89,479.55c25.59-22.76,56.43-39.26,83.91-59.58c38.97-28.81,71.97-65.49,89-110.52
			c-2.82-0.36-4.51-0.74-6.3-4.92c-0.92-2.16-1.57-4.33-2.1-6.49c-9.72,22.6-21.24,44.17-37.16,63.33
			c-21.58,25.98-49.34,44.16-77.72,61.84c-26.16,16.3-52.78,32.91-74.18,55.37c-8.05,8.45-14.31,17.2-19.56,26.3
			c3.64,3.12,8.15,5.09,13.38,6.26c0.63,0.14,1.29,0.25,1.92,0.38C974.22,499.69,984.17,489.09,994.89,479.55z"/>
		<path class="st15" d="M993.5,449.03c-2.57-37.05-21.65-63.26-59.4-68.54c-12.01-1.68-23.21-3.57-28.64-16.04
			c-4.37-10.05-4.36-22.08-7.45-32.56c-4.24-14.42-11.68-25.32-26.76-29.48c-18.83-5.19-33.15,5.65-51.2,6.85
			c-15.71,1.04-27.15-9.99-41.85-12.46c-10.98-1.85-24.93,5.84-33.63,11.86c-14.42,9.98-26.69,25.66-30.06,43.14
			c-6.32,32.77,12.43,72.94,44.09,85.32c9.82,3.84,21.23,4.1,29.37,11.59c7.87,7.23,9.58,17.78,11.41,27.75
			c3.75,20.41,13.51,34.3,32.46,43.77c20.39,10.19,43.63,7.52,65.18,13.34c28.51,7.7,40.17,28.37,53.97,51.97
			c3.62,6.18,11.45,3.06,13.01-3.52c3.25-13.72,7.82-22.61,12.56-33.49c4.59-10.52,8.13-21.44,10.8-32.6
			C992.57,494.14,995.05,471.41,993.5,449.03z"/>
		<path class="st19" d="M829.37,397.58c-0.68,1.68,0.13,3.59,1.81,4.27c0.4,0.17,0.82,0.24,1.23,0.24c1.29,0,2.52-0.77,3.04-2.05
			c14.52-35.74,11.54-79.21,9.55-96.5c-2.14,0.58-4.28,1.22-6.43,1.85C840.42,322.83,842.87,364.35,829.37,397.58z"/>
		<path class="st19" d="M895.94,453.66c0.4,0.17,0.82,0.24,1.23,0.24c1.29,0,2.52-0.77,3.04-2.05
			c10.56-25.98,14.41-55.46,15.78-75.99c-2.35-1.21-4.48-2.78-6.34-4.83c-1.1,20.14-4.62,51.54-15.52,78.35
			C893.45,451.06,894.26,452.98,895.94,453.66z"/>
		<path class="st19" d="M796.72,387.27c1.8-0.22,3.08-1.85,2.87-3.65c-0.22-1.8-1.79-3.09-3.65-2.87c-37.81,4.52-68.05-3-82.14-7.63
			c0.26,2.44,0.64,4.87,1.12,7.3c12,3.7,31.97,8.31,57.16,8.31C779.83,388.74,788.07,388.3,796.72,387.27z"/>
		<path class="st19" d="M884.13,436.84c1.33-1.23,1.41-3.31,0.18-4.64c-1.23-1.34-3.31-1.41-4.63-0.18
			c-25.62,23.69-61.96,26.09-85.93,24.47c1.13,2.19,2.02,4.5,2.74,6.89c2.94,0.16,6.02,0.26,9.23,0.26
			C829.87,463.64,860.74,458.47,884.13,436.84z"/>
		<path class="st19" d="M926.81,488.55c1.22-1.34,1.13-3.41-0.21-4.63c-1.33-1.22-3.41-1.13-4.63,0.21
			c-29.15,31.93-77.43,32.67-98.37,31.29c2.54,1.72,5.27,3.33,8.25,4.82c1.69,0.84,3.41,1.57,5.14,2.25
			C862.11,522.36,900.88,516.95,926.81,488.55z"/>
		<path class="st19" d="M931.35,495.86c-1.26,1.3-1.24,3.37,0.06,4.64c0.64,0.62,1.46,0.93,2.29,0.93c0.86,0,1.71-0.33,2.35-0.99
			c34.98-35.91,29.69-91.36,26.7-109.96c-2.32-1.45-4.79-2.76-7.39-3.94C956.96,394.59,968.14,458.09,931.35,495.86z"/>
		<path class="st18" d="M971.48,608.33c-6.79-63.93-35.22-131.54-83.44-174.84c-23.95-21.51-50.5-34.46-78.13-50.38
			c-29.92-17.24-55.38-40.18-70.19-70.78c-1.75,1.42-3.45,2.92-5.09,4.5c9.01,21.72,24.39,40.6,42.11,55.93
			c25.08,21.69,56.95,31.75,83.24,51.47c28.02,21.01,44.82,50.58,61.15,80.88c8.57,15.91,15.55,32.22,20.68,49.56
			c5.42,18.33,8.2,37.93,15.56,55.58C960.16,616.9,972.42,617.19,971.48,608.33z"/>
		<path class="st11" d="M1013.63,674.69c19.55-17.38,41.97-28.92,72.71-37.4c17.92-4.94,33.56-15.59,48.7-25.89
			c6.02-4.1,12.24-8.33,18.38-12.03c4.49-2.7,8.9-5.53,13.16-8.26c12.88-8.26,25.05-16.05,39.53-20.86
			c10.09-3.34,20.27-5.33,30.4-6.38c-1.73-2.7-3.72-5.24-5.96-7.58c-8.99,1.21-18.03,3.19-27.03,6.17
			c-15.46,5.13-28.64,13.57-41.38,21.73c-4.26,2.73-8.55,5.48-12.96,8.14c-6.34,3.81-12.66,8.11-18.76,12.27
			c-14.58,9.92-29.66,20.18-46.26,24.76c-32.01,8.83-55.45,20.92-75.98,39.18c-8.83,7.86-21.8,20.76-31,35.67
			c-0.64,6.05-0.04,11.67,3.02,11.47C989.03,697.9,1005.6,681.83,1013.63,674.69z"/>
		<path class="st18" d="M826.52,640.24c12.96-4.99,32.25-11.41,49.96-9.51c1.34,0.15,2.56-0.83,2.71-2.19
			c0.14-1.35-0.83-2.56-2.18-2.71c-18.76-2.01-38.81,4.64-52.25,9.81c-21.96,8.46-59.29,30.76-76.23,48.21
			c2.48,0.64,4.98,1.16,7.5,1.56C773.67,667.54,800.65,650.2,826.52,640.24z"/>
		<path class="st18" d="M925.86,667.29c1.34,0.09,2.52-0.95,2.6-2.31c0.08-1.36-0.95-2.52-2.31-2.6
			c-18.83-1.14-38.55,6.44-51.73,12.24c-13.83,6.08-28.25,14.16-41.36,23.26c2.42,0.94,4.85,1.87,7.27,2.76
			c12.77-9.09,26.01-17.1,36.06-21.51C889.11,673.53,908.08,666.22,925.86,667.29z"/>
		<path class="st18" d="M895.09,639.32c0.38-0.02,0.76-0.12,1.11-0.32c1.18-0.68,1.59-2.18,0.91-3.36
			c-4.16-7.25-13.47-36.01-16.07-49.99c-2.01-1.93-3.95-3.98-5.74-6.17c1.62,21.19,7.46,41.05,17.54,58.61
			C893.31,638.91,894.19,639.36,895.09,639.32z"/>
		<path class="st18" d="M810.38,604.15c0.48,0.81,1.35,1.24,2.23,1.2c0.39-0.02,0.78-0.13,1.14-0.35c1.17-0.7,1.55-2.21,0.85-3.37
			c-11.09-18.58-2.37-54.84,4.94-73.28c-1.9-0.18-3.77-0.25-5.6-0.23C805.98,547.95,800.4,587.44,810.38,604.15z"/>
		<path class="st18" d="M802.63,598.87c1.33,0.33,2.65-0.48,2.98-1.79c0.33-1.32-0.48-2.65-1.79-2.98
			c-18.32-4.56-37.6-0.72-51.62,2.57c-18.54,4.35-36.77,10.92-51.95,19.34c-0.09,1.19-0.21,2.37-0.24,3.61
			c-0.03,1.19,0.01,2.36,0.04,3.54c14.55-7.91,35.16-17.8,51.79-21.7C765.36,598.28,785.35,594.56,802.63,598.87z"/>
		<path class="st20" d="M758.21,577.18c6.31,3.41,12.72,7.35,18.92,11.16c15.59,9.58,31.72,19.49,49.85,23.6
			c31.1,7.04,52.56,20.2,72.83,36.73c37.78,30.79,46.78,44.55,53.73,67.03c10.95-1.21,9.69-12.47,4.38-26.54
			c-12.36-21.17-36.32-41.06-51.41-49.61c-23.91-13.54-45.33-28.27-77.72-35.6c-16.8-3.8-32.34-13.35-47.36-22.59
			c-6.3-3.87-12.81-7.87-19.31-11.39c-4.53-2.45-8.94-4.99-13.32-7.53c-1.16-0.67-2.34-1.35-3.51-2.02
			c-0.01,0.01-0.02,0.01-0.04,0.02c-2.83,1.51-5.6,3.07-8.29,4.68c2.57,1.45,5.14,2.92,7.74,4.42
			C749.07,572.08,753.6,574.69,758.21,577.18z"/>
	</g>
</g>
</svg>
